<svg preserveAspectRatio="none" width="100%" height="100%" overflow="visible" style="display: block;" viewBox="0 0 445 445" fill="none" xmlns="http://www.w3.org/2000/svg">
<g id="CloudsFill" opacity="0.7" clip-path="url(#clip0_0_260)">
<path id="Vector" d="M319.093 250.313C315.964 222.114 303.347 195.816 283.311 175.73C263.275 155.643 237.009 142.959 208.819 139.759C180.629 136.558 152.188 143.031 128.159 158.115C104.13 173.199 85.9386 195.999 76.5678 222.778C55.0949 224.536 35.1342 234.531 20.8639 250.672C6.59368 266.813 -0.879819 287.849 0.00783203 309.375C0.895483 330.902 10.0755 351.25 25.6262 366.162C41.1769 381.073 61.8928 389.391 83.4375 389.375H319.844C338.285 389.275 355.931 381.854 368.9 368.744C381.869 355.634 389.099 337.909 389 319.468C388.9 301.027 381.479 283.381 368.369 270.412C355.259 257.443 337.534 250.213 319.093 250.313Z" fill="url(#paint0_linear_0_260)"/>
<path id="Vector_2" d="M404.505 271.784C397.93 260.192 389.045 250.073 378.401 242.055C367.756 234.037 355.578 228.29 342.622 225.17C332.758 187.773 309.093 155.501 276.392 134.849C243.691 114.197 204.381 106.699 166.374 113.864C177.04 94.2235 193.372 78.2485 213.243 68.0188C233.115 57.7891 255.605 53.7786 277.788 56.5094C299.971 59.2402 320.817 68.5858 337.614 83.3296C354.411 98.0734 366.381 117.533 371.964 139.174C388.111 138.349 404.04 143.177 417.011 152.827C429.983 162.477 439.186 176.346 443.038 192.047C446.89 207.749 445.151 224.302 438.118 238.86C431.085 253.418 419.2 265.042 404.505 271.784Z" fill="url(#paint1_linear_0_260)"/>
</g>
<defs>
<linearGradient id="paint0_linear_0_260" x1="194.469" y1="138.96" x2="194.469" y2="389.375" gradientUnits="userSpaceOnUse">
<stop stop-color="white"/>
<stop offset="1" stop-color="#D9F2FF" stop-opacity="0"/>
</linearGradient>
<linearGradient id="paint1_linear_0_260" x1="305.708" y1="55.6754" x2="305.708" y2="271.812" gradientUnits="userSpaceOnUse">
<stop stop-color="white"/>
<stop offset="1" stop-color="#D9F2FF" stop-opacity="0"/>
</linearGradient>
<clipPath id="clip0_0_260">
<rect width="445" height="445" fill="white"/>
</clipPath>
</defs>
</svg>
