<svg preserveAspectRatio="none" width="100%" height="100%" overflow="visible" style="display: block;" viewBox="0 0 137.5 75" fill="none" xmlns="http://www.w3.org/2000/svg">
<g id="Decorative element" opacity="0.1">
<path id="Icon" d="M100 75L91.25 66.25L119.688 37.5L91.25 8.75L100 0L137.5 37.5L100 75V75M37.5 75L0 37.5L37.5 0L46.25 8.75L17.8125 37.5L46.25 66.25L37.5 75V75M43.75 43.75C41.9792 43.75 40.4948 43.151 39.2969 41.9531C38.099 40.7552 37.5 39.2708 37.5 37.5C37.5 35.7292 38.099 34.2448 39.2969 33.0469C40.4948 31.849 41.9792 31.25 43.75 31.25C45.5208 31.25 47.0052 31.849 48.2031 33.0469C49.401 34.2448 50 35.7292 50 37.5C50 39.2708 49.401 40.7552 48.2031 41.9531C47.0052 43.151 45.5208 43.75 43.75 43.75V43.75M68.75 43.75C66.9792 43.75 65.4948 43.151 64.2969 41.9531C63.099 40.7552 62.5 39.2708 62.5 37.5C62.5 35.7292 63.099 34.2448 64.2969 33.0469C65.4948 31.849 66.9792 31.25 68.75 31.25C70.5208 31.25 72.0052 31.849 73.2031 33.0469C74.401 34.2448 75 35.7292 75 37.5C75 39.2708 74.401 40.7552 73.2031 41.9531C72.0052 43.151 70.5208 43.75 68.75 43.75V43.75M93.75 43.75C91.9792 43.75 90.4948 43.151 89.2969 41.9531C88.099 40.7552 87.5 39.2708 87.5 37.5C87.5 35.7292 88.099 34.2448 89.2969 33.0469C90.4948 31.849 91.9792 31.25 93.75 31.25C95.5208 31.25 97.0052 31.849 98.2031 33.0469C99.401 34.2448 100 35.7292 100 37.5C100 39.2708 99.401 40.7552 98.2031 41.9531C97.0052 43.151 95.5208 43.75 93.75 43.75V43.75" fill="var(--fill-0, #2E3133)"/>
</g>
</svg>
