<svg preserveAspectRatio="none" width="100%" height="100%" overflow="visible" style="display: block;" viewBox="0 0 229 229" fill="none" xmlns="http://www.w3.org/2000/svg">
<g id="Gemini_Generated_Image_t1ixovt1ixovt1ix 1 [Vectorized]">
<g id="Ellipse 48" filter="url(#filter0_f_0_204)">
<ellipse cx="116" cy="183" rx="38" ry="6" fill="var(--fill-0, black)" fill-opacity="0.8"/>
</g>
<path id="Vector" d="M143.378 42.3488C144.496 40.9298 145.958 39.9997 147.228 38.7556C152.092 33.9893 157.53 28.9492 159.83 22.3581C160.166 21.399 159.966 19.0583 160.605 18.448L160.839 18.4677C161.177 18.7354 161.245 19.0353 161.409 19.4405C161.813 20.1293 162.193 21.4071 162.426 22.2177C164.243 28.558 164.798 35.4233 164.249 41.9915C164.06 44.2434 163.43 45.9868 163.189 47.8411C169.849 43.9733 175.737 43.6425 183.492 44.355C186.815 44.6604 199.334 45.4659 199.889 50.6636C199.137 52.0682 196.137 53.7119 195.046 54.8802C190.257 60.0064 186.45 68.6744 180.433 72.3071C174.969 75.6048 166.159 73.6616 160.32 73.307C160.507 75.6337 160.924 78.1031 161.007 80.396C161.282 88.0821 161.996 95.6371 166.32 102.242C167.284 103.715 168.362 105.178 169.234 106.712C175.358 117.068 168.829 126.994 160.347 133.319C159.364 134.051 158.069 134.763 157.143 135.524C156.611 136.398 154.62 142.002 154.397 143.097C156.121 145.288 157.507 148.233 158.423 150.867C159.997 155.395 158.823 160.55 155.475 164.054C158.676 165.459 160.468 166.698 161.84 170.125C162.022 170.582 162.315 171.629 162.494 171.978C171.273 173.592 173.245 167.882 172.248 160.403C172.971 160.323 173.182 160.218 173.838 159.956C174.578 163.433 174.285 168.535 172.56 171.711C171.38 173.883 166.297 175.287 164.003 175.034C164.186 175.878 164.237 176.112 164.277 176.973L164.288 177.187L164.294 177.314C164.767 182.128 162.622 186.954 159.528 190.856C155.781 195.583 146.377 199.687 140.834 195.636C139.01 194.303 138.959 192.51 138.53 190.552C137.943 190.095 137.128 189.425 136.53 189.027C134.23 190.541 130.851 191.881 128.204 192.672C120.538 195.019 112.4 195.369 104.56 193.688C101.412 193.039 97.9343 191.902 95.0014 190.6C93.7625 190.05 92.5763 189.363 91.3762 188.812C90.4577 189.557 89.7587 190.089 88.7542 190.724C88.6599 190.939 88.5177 191.618 88.4641 191.876C87.7007 195.572 84.5191 197.414 80.8776 197.255C76.2713 197.047 71.6486 195.23 68.462 191.841C65.0504 188.214 62.5273 182.977 62.6933 177.916C62.689 174.661 63.7729 173.379 66.379 171.673C67.46 168.635 68.1901 166.666 71.1781 165.005C71.9741 164.564 72.8011 164.35 73.5408 163.804C68.1188 155.804 72.9057 145.744 77.6136 138.643C76.523 137.976 75.0631 137.464 73.8853 136.763C69.033 133.877 65.1329 130.851 61.6248 126.419C57.3713 121.503 55.9202 113.569 59.2021 107.745C61.8761 102.999 64.8729 99.7265 66.3005 94.0828C67.4792 89.4233 67.8851 84.9496 68.0159 80.1124C68.0701 78.107 68.4565 75.4923 68.723 73.4428C68.3299 73.2041 62.2491 74.1225 61.2188 74.1663C57.386 74.3286 51.2398 74.1705 48.0384 71.8057C42.1911 67.3494 39.1105 60.3594 34.2609 54.9344C32.8738 53.3828 28.8604 51.6742 29.4247 49.9794C30.2779 47.7925 33.6793 46.3477 35.8451 45.8728C44.1889 44.0433 53.8328 42.9091 62.048 45.7928C63.4579 46.2879 64.7768 47.0924 66.0448 47.8519C65.9143 46.6339 65.514 45.4283 65.3538 44.1996C64.3305 36.3393 64.8165 27.9487 67.4039 20.424C67.5701 19.9408 68.0831 18.4661 68.6366 18.4825C68.881 18.7904 68.841 18.9812 68.8533 19.379L68.882 19.508C69.0741 20.3962 69.1421 21.6758 69.4126 22.4279C72.3023 30.4637 79.7312 36.7653 85.8851 42.2082C86.8711 41.7869 87.6957 41.0931 88.63 40.5669C92.4334 38.4249 96.3402 37.0447 100.496 35.7984C113.837 31.7975 127.854 33.9685 140.055 40.4094C141.147 40.9861 142.28 41.8357 143.378 42.3488Z" fill="var(--fill-0, #623E81)"/>
<path id="Vector_2" d="M100.507 78.5012C102.156 78.5878 102.836 78.0768 103.431 76.5826C104.303 80.154 103.952 82.5803 102.5 85.9101C102.439 86.0508 102.591 86.1247 102.674 86.1834C103.575 86.5154 113.973 88.2826 114.872 88.2292C117.101 88.0968 124.571 87.025 126.799 86.3813C127.163 86.4556 127.358 86.505 127.619 86.2677L127.597 85.8491L127.865 86.0981C128.202 85.8791 129.171 85.7197 129.637 85.6028L129.766 85.7194C130.844 85.838 135.161 84.9364 136.573 84.788C137.605 84.6796 139.85 84.6535 140.697 84.5302L141.666 85.139C141.935 85.3604 142.122 85.4646 142.238 85.7902C142.89 85.535 143.46 85.2623 144.036 84.8616C144.927 84.6842 146.183 84.4294 147.007 84.0711C148.509 83.9227 149.679 83.7948 151.169 84.0469C156.61 84.9664 157.054 90.3128 156.764 94.7021C157.227 95.316 157.644 96.2004 158.004 96.8943C160.164 101.052 161.704 107.144 161.437 111.87C161.456 112.152 161.586 113.292 161.575 113.455C161.236 118.117 159.329 122.497 156.295 125.96C155.694 126.637 155.078 127.3 154.449 127.948C155.281 128.686 155.932 129.324 156.71 130.107C150.214 130.356 143.615 129.879 137.146 130.342C135.783 130.439 134.612 132.41 134.183 133.565C132.139 139.072 130.253 144.638 128.266 150.165L125.013 159.278C124.127 161.719 122.828 164.819 122.452 167.322C121.378 166.462 119.979 165.314 120.454 163.846C122.275 158.218 124.538 152.585 126.373 146.961L126.46 146.69C126.089 146.345 126.069 144.485 125.456 143.572C124.38 141.969 123.121 141.892 121.947 140.572C121.713 140.309 120.985 140.384 120.663 140.389C120.306 140.345 119.106 139.968 118.646 139.858C116.996 139.391 115.415 139.379 113.728 139.367C111.624 139.352 109.892 140.047 107.858 140.33C107.567 140.37 106.583 140.22 106.242 140.176C105.622 139.954 103.78 139.851 103.038 139.735C92.9938 138.151 82.4551 134.52 75.218 127.099C71.5524 123.342 69.0064 117.848 69.1412 112.703C68.6946 108.562 69.7916 103.125 71.3946 99.2704C71.4563 98.7079 70.5723 96.5796 70.4313 95.8517C69.4354 90.7075 70.5213 84.1278 77.0025 83.9306C79.2862 83.8613 80.6069 84.3659 82.813 84.7401C83.4233 85.0071 84.0189 85.2395 84.6389 85.4816C85.3592 85.2584 87.4216 84.8706 87.7374 84.5491C88.1156 84.8548 89.6825 84.6915 90.2149 84.6308C93.9526 84.6079 96.6039 85.1896 100.278 85.6785C101.002 83.6398 102.222 81.1095 101.426 78.8772C101.312 78.5573 100.804 78.5559 100.507 78.5012Z" fill="var(--fill-0, #F6A25A)"/>
<path id="Vector_3" d="M151.67 127.808C156.65 124.68 160.758 117.704 161.437 111.87C161.456 112.152 161.586 113.292 161.575 113.455C161.236 118.117 159.329 122.497 156.295 125.96C155.694 126.637 155.078 127.3 154.449 127.948C155.281 128.686 155.932 129.324 156.71 130.107C150.214 130.356 143.615 129.879 137.146 130.342C135.783 130.439 134.612 132.41 134.183 133.565C132.139 139.072 130.253 144.638 128.266 150.165L125.013 159.278C124.127 161.719 122.828 164.819 122.452 167.322C121.378 166.462 119.979 165.314 120.454 163.846C122.275 158.218 124.538 152.585 126.373 146.961L126.46 146.69C126.089 146.345 126.069 144.485 125.456 143.572C124.38 141.969 123.121 141.892 121.947 140.572C121.713 140.309 120.985 140.384 120.663 140.389C120.305 140.345 119.106 139.968 118.646 139.858C116.996 139.391 115.415 139.379 113.728 139.367C111.624 139.352 109.892 140.047 107.858 140.33C107.567 140.37 106.583 140.22 106.242 140.176C105.622 139.954 103.78 139.851 103.038 139.735C92.9938 138.151 82.4551 134.52 75.218 127.099C71.5524 123.342 69.0064 117.848 69.1412 112.703C69.2453 113.446 69.601 114.461 69.8251 115.202C71.2065 119.772 73.6138 123.339 77.1852 126.442C85.9676 134.005 97.9597 137.191 109.31 137.948C114.261 138.278 118.992 138.208 123.919 137.626C126.017 137.379 127.936 136.895 130.077 136.716C130.891 134.565 131.511 132.152 132.438 130.087C133.765 127.126 138.032 127.793 140.797 127.802C144.421 127.834 148.046 127.836 151.67 127.808Z" fill="var(--fill-0, #D06C1D)"/>
<path id="Vector_4" d="M120.663 140.389C122.319 140.316 127.547 139.651 129.155 139.22C128.336 141.615 127.391 144.334 126.46 146.69C126.089 146.345 126.069 144.485 125.456 143.572C124.38 141.969 123.121 141.892 121.947 140.572C121.713 140.309 120.985 140.384 120.663 140.389Z" fill="var(--fill-0, #623E81)"/>
<path id="Vector_5" d="M147.007 84.0711C148.509 83.9227 149.679 83.7948 151.169 84.0469C156.61 84.9664 157.054 90.3128 156.764 94.7021C156.457 95.3956 156.241 97.1858 155.799 98.2356C155.115 99.8604 153.79 103.389 152.088 104.185C152.045 104.123 152.001 104.06 151.957 103.997C152.101 103.59 152.817 102.629 153.033 102.317C155.084 99.3508 156.455 94.9687 156.063 91.3675C155.841 89.4271 155.335 87.0664 153.664 85.8436C151.742 84.4383 149.07 84.4527 146.819 84.8102C145.686 84.9903 144.461 85.5228 143.399 85.9648C142.337 86.4075 141.316 87.2247 140.155 87.3865L140.029 87.2837C140.405 86.5755 141.501 86.152 142.238 85.7902C142.89 85.535 143.46 85.2622 144.036 84.8616C144.927 84.6842 146.183 84.4294 147.007 84.0711Z" fill="var(--fill-0, #D06C1D)"/>
<path id="Vector_6" d="M71.3945 99.2704C71.4563 98.7079 70.5722 96.5796 70.4312 95.8517C69.4354 90.7075 70.5213 84.1278 77.0025 83.9306C79.2862 83.8613 80.6069 84.3659 82.813 84.7401C83.4233 85.0071 84.0188 85.2395 84.6389 85.4816L84.8373 85.6961C84.2592 85.9084 83.4427 85.3265 83.1998 85.6616L83.4551 85.9103C81.0754 85.024 78.6582 84.36 76.1774 84.7115C69.0007 85.7285 70.3796 96.1403 73.016 100.63C73.4566 101.38 74.8901 103.535 74.9042 104.136L74.7107 104.248C73.8694 104.008 71.9875 99.9288 71.3945 99.2704Z" fill="var(--fill-0, #D06C1D)"/>
<path id="Vector_7" d="M83.4551 85.9103L83.1998 85.6617C83.4427 85.3265 84.2592 85.9084 84.8373 85.6961C85.3782 85.9022 86.5024 86.6406 86.9026 87.0591L86.9513 87.3187C86.4391 87.744 84.0966 86.2337 83.4551 85.9103Z" fill="var(--fill-0, #D06C1D)"/>
<path id="Vector_8" d="M87.6355 112.491C85.271 111.782 81.5487 108.959 80.1111 106.887C75.5827 100.364 74.4688 89.1015 86.0936 91.5661C87.5419 91.8733 90.9879 92.8512 91.817 94.1228C94.2857 95.5289 97.0357 98.8304 97.6406 101.62C99.3973 109.722 97.3489 117.293 87.6355 112.491Z" fill="var(--fill-0, #9C2E0A)"/>
<path id="Vector_9" d="M87.6355 112.491C85.271 111.782 81.5487 108.959 80.1111 106.887C75.5827 100.364 74.4688 89.1015 86.0936 91.5661C87.542 91.8733 90.9879 92.8512 91.817 94.1228C89.2541 93.2727 86.5173 91.6463 83.6228 92.9618C82.5375 93.4801 81.4932 94.6186 81.2031 95.8349C80.2465 99.8439 80.7915 103.147 82.5582 106.759C83.6975 109.089 86.969 111.135 87.6355 112.491Z" fill="var(--fill-0, #D06C1D)"/>
<path id="Vector_10" d="M135.491 94.1144C137.361 92.1339 141.402 91.3525 144.007 91.2474C147.847 91.0927 150.149 93.2456 150.22 97.1066C150.286 101.234 148.727 105.222 145.882 108.212C144.41 109.735 142.049 111.609 139.986 112.218C138.007 113.329 135.459 114.449 133.121 113.938C132.026 113.69 130.811 112.843 130.305 111.818C127.195 105.506 129.525 97.6522 135.491 94.1144Z" fill="var(--fill-0, #9C2E0A)"/>
<path id="Vector_11" d="M135.491 94.1144C137.361 92.1339 141.402 91.3525 144.007 91.2474C147.847 91.0927 150.149 93.2456 150.22 97.1066C150.286 101.234 148.727 105.222 145.882 108.212C144.41 109.735 142.049 111.609 139.986 112.218C141.609 110.607 142.762 109.634 144.139 107.741C146.207 104.843 147.045 100.874 146.528 97.4128C145.771 92.3562 141.679 91.3498 137.56 93.3642C137.032 93.6224 136.058 94.0355 135.491 94.1144Z" fill="var(--fill-0, #D06C1D)"/>
<path id="Vector_12" d="M128.514 118.671C128.762 118.709 129.012 118.747 129.26 118.787C130.68 119.003 131.275 119.287 132.366 120.307C133.211 121.098 133.565 123.8 132.685 124.541L132.452 124.475C131.846 123.887 131.258 122.489 130.858 121.662C122.72 130.435 106.667 130.215 97.8461 122.495L97.1665 123.118C96.7629 123.673 96.6344 124.132 96.1383 124.629L95.9251 124.609C95.0774 123.322 96.5393 120.757 97.8321 120.237C98.7665 119.862 99.9277 119.786 100.871 120.12L100.917 120.274C100.435 120.768 99.1939 121.24 98.5232 121.537C107.06 127.777 121.767 127.512 130.03 120.941C129.453 120.425 128.166 119.711 128.133 118.957L128.514 118.671Z" fill="var(--fill-0, #9C2E0A)"/>
<path id="Vector_13" d="M121.035 130.025C121.174 130.049 121.177 130.075 121.308 130.154L121.284 130.415C120.697 131.212 119.395 131.994 118.463 132.242C115.297 133.084 112.694 132.887 109.847 131.387C109.42 131.166 109.001 131.005 108.814 130.58C109.138 130.278 110.727 130.851 111.228 130.963C115.019 131.813 117.597 131.365 121.035 130.025Z" fill="var(--fill-0, #D06C1D)"/>
<path id="Vector_14" d="M122.452 167.322C122.828 164.818 124.127 161.719 125.013 159.278L128.266 150.165C130.253 144.638 132.139 139.072 134.183 133.565C134.612 132.41 135.783 130.439 137.146 130.342C143.615 129.879 150.214 130.356 156.71 130.107C159.379 132.29 157.586 133.098 157.143 135.524C156.611 136.398 154.62 142.002 154.397 143.097C156.121 145.288 157.507 148.233 158.423 150.867C159.997 155.395 158.823 160.55 155.475 164.054C158.676 165.459 160.468 166.698 161.84 170.125C162.022 170.582 162.315 171.629 162.494 171.978C171.273 173.592 173.245 167.882 172.248 160.403C172.971 160.323 173.182 160.218 173.838 159.956C174.578 163.433 174.285 168.535 172.56 171.711C171.38 173.883 166.297 175.287 164.003 175.034C164.186 175.878 164.237 176.112 164.277 176.973L164.288 177.187L164.294 177.314C164.767 182.128 162.622 186.954 159.528 190.856C155.781 195.583 146.377 199.687 140.834 195.636C139.01 194.303 138.959 192.51 138.53 190.552C137.943 190.095 137.128 189.425 136.53 189.027C134.23 190.541 130.851 191.881 128.204 192.672C120.538 195.019 112.4 195.369 104.56 193.688C101.412 193.039 97.9343 191.902 95.0015 190.6C93.7625 190.05 92.5763 189.363 91.3762 188.812C90.4577 189.557 89.7587 190.089 88.7542 190.724C88.6599 190.939 88.5177 191.618 88.4641 191.876C87.7007 195.572 84.5191 197.414 80.8776 197.255C76.2713 197.047 71.6486 195.23 68.462 191.841C65.0504 188.214 62.5273 182.977 62.6933 177.916C62.689 174.661 63.7729 173.379 66.379 171.673C67.46 168.635 68.1901 166.666 71.1781 165.005C71.9741 164.564 72.8011 164.35 73.5408 163.804C73.9426 164.277 74.9824 165.107 75.517 165.502C79.0274 168.087 83.698 168.136 87.8318 167.492C89.9999 167.155 93.7172 165.702 95.7601 164.68C99.2437 162.937 105.209 158.711 107.384 155.509C111.832 159.915 117.094 156.523 118.6 151.509C119.084 149.895 118.086 148.349 117.625 146.823C118.01 144.818 125.195 147.997 124.636 144.714C124.347 143.01 120.087 141.711 118.732 141.239C110.95 138.461 105.07 144.328 98.523 146.982C93.9035 148.853 88.4211 150.91 83.6717 152.322C85.203 151.169 87.744 149.909 88.8113 149.009C89.1896 147.168 89.7239 145.544 90.2995 143.762C91.1252 144.045 93.5023 144.529 93.881 145.01C94.4587 145.034 97.3149 145.507 97.7423 145.746C98.0927 145.584 98.4424 145.419 98.7909 145.253C100.108 144.624 106.643 141.426 106.952 140.553C106.624 140.5 106.541 140.507 106.24 140.358L106.242 140.176C106.583 140.22 107.567 140.37 107.858 140.33C109.892 140.047 111.624 139.352 113.728 139.367C115.415 139.379 116.996 139.391 118.646 139.858C119.106 139.968 120.306 140.345 120.663 140.389C120.985 140.384 121.713 140.309 121.947 140.572C123.121 141.892 124.38 141.969 125.456 143.572C126.069 144.485 126.089 146.345 126.46 146.69L126.373 146.961C124.538 152.585 122.275 158.218 120.454 163.846C119.979 165.314 121.378 166.462 122.452 167.322Z" fill="var(--fill-0, #51366D)"/>
<path id="Vector_15" d="M122.452 167.322C122.828 164.818 124.127 161.719 125.013 159.278L128.266 150.165C130.253 144.638 132.139 139.072 134.183 133.565C134.612 132.41 135.783 130.439 137.146 130.342C143.615 129.879 150.214 130.356 156.71 130.107C159.379 132.29 157.586 133.098 157.143 135.524C156.611 136.398 154.62 142.002 154.397 143.097C153.707 144.648 153.083 146.399 152.503 148.004C149.824 146.325 147.734 146.714 145.18 148.216C144.887 148.388 144.383 148.743 144.083 148.821C142.993 148.804 139.482 148.676 138.657 148.974C137.852 149.789 136.189 152.285 137.286 153.341C137.995 154.021 139.933 153.83 140.846 153.761C140.561 154.692 139.966 156.573 139.853 157.472C139.985 158.168 139.766 160.278 139.939 161.687C141.055 164.818 142.096 165.868 145.207 166.92C144.76 167.338 143.709 168.354 143.156 168.444C140.314 168.901 135.858 168.645 132.951 168.647C130.261 168.591 127.498 168.744 124.804 168.683C123.562 168.655 123.205 168.179 122.452 167.322Z" fill="var(--fill-0, #F6A25A)"/>
<path id="Vector_16" d="M139.853 157.472C139.985 158.168 139.766 160.278 139.939 161.687C137.813 161.662 135.687 161.656 133.56 161.672C132.417 161.676 129.771 161.901 128.956 161.189C128.628 160.902 128.428 160.497 128.398 160.062C128.338 159.125 129.63 157.588 130.492 157.524C133.51 157.293 136.826 157.454 139.853 157.472Z" fill="var(--fill-0, #623E81)"/>
<path id="Vector_17" d="M144.882 134.212C146.794 134.071 151.469 134.076 153.363 134.212C153.504 134.325 153.641 134.442 153.774 134.563C154.916 135.617 153.699 138.356 152.835 139.312C151.945 140.295 150.018 140.163 148.768 140.183C145.724 140.19 145.061 140.955 142.487 142.602C142.97 141.717 143.204 141.187 143.538 140.246C141.548 139.244 142.095 137.919 142.904 136.119C143.307 135.221 143.912 134.511 144.882 134.212Z" fill="var(--fill-0, #623E81)"/>
<path id="Vector_18" d="M134.659 142.272C135.582 142.18 137.189 142.153 138.087 142.232C140.076 142.403 138.434 146.557 137.402 147.137C136.586 147.255 134.35 147.362 133.609 147.103C132.061 146.564 133.414 142.726 134.659 142.272Z" fill="var(--fill-0, #D06C1D)"/>
<path id="Vector_19" d="M138.015 133.082C141.092 132.755 141.222 135.59 138.888 136.797C136.054 137.459 135.71 134.207 138.015 133.082Z" fill="var(--fill-0, #51366D)"/>
<path id="Vector_20" d="M119.746 147.81C121.122 147.939 122.848 148.147 124.187 147.854C125.208 147.631 125.286 146.952 126.373 146.961C124.538 152.585 122.275 158.218 120.454 163.846C119.979 165.314 121.378 166.462 122.452 167.322C123.205 168.179 123.562 168.655 124.804 168.683C127.498 168.744 130.261 168.591 132.951 168.647C132.78 168.654 132.064 168.678 131.988 168.839C124.257 185.301 103.123 183.425 96.6419 166.94C100.203 164.927 105.341 161.558 107.739 158.209C111.46 161.419 117.074 158.501 119.225 154.833C120.592 152.504 120.38 150.306 119.746 147.81Z" fill="var(--fill-0, #623E81)"/>
<path id="Vector_21" d="M66.379 171.673C75.7724 169.049 85.7158 174.943 88.2579 184.314C88.5777 185.537 88.7246 186.799 88.6942 188.064C88.8007 188.839 88.7602 189.917 88.7542 190.724C88.6599 190.939 88.5177 191.618 88.4641 191.876C87.7007 195.572 84.5191 197.414 80.8776 197.255C76.2713 197.047 71.6486 195.23 68.462 191.841C65.0504 188.214 62.5273 182.978 62.6933 177.916C62.689 174.661 63.7729 173.379 66.379 171.673Z" fill="var(--fill-0, #D06C1D)"/>
<path id="Vector_22" d="M66.379 171.673C75.7724 169.049 85.7158 174.943 88.2579 184.314C88.5777 185.537 88.7246 186.799 88.6942 188.064L88.6318 188.112C88.2117 187.235 87.7084 185.837 87.2691 185.051C85.8719 182.549 84.3758 180.363 82.0635 178.628C78.0808 175.638 73.0535 173.639 68.0118 174.293C66.6116 174.49 64.7175 175.078 63.8008 176.206C63.3726 176.733 63.1705 177.343 62.6933 177.916C62.689 174.661 63.7729 173.379 66.379 171.673Z" fill="var(--fill-0, #F6A25A)"/>
<path id="Vector_23" d="M138.515 190.204C139.01 189.702 139.152 189.455 139.293 188.757C141.123 179.708 151.148 172.936 160.199 174.416C161.643 174.652 163.107 175.787 163.885 177.028C164.02 177.244 164.055 177.195 164.294 177.314C164.767 182.128 162.622 186.954 159.528 190.856C155.781 195.583 146.377 199.687 140.834 195.636C139.01 194.303 138.959 192.51 138.53 190.552L138.515 190.204Z" fill="var(--fill-0, #D06C1D)"/>
<path id="Vector_24" d="M138.515 190.204C138.441 187.053 138.538 184.977 139.767 182.039C141.528 177.732 145.047 174.169 149.378 172.448C151.894 171.372 154.247 171.075 156.944 171.05C159.636 171.025 162.959 172.3 164.003 175.034C164.186 175.878 164.237 176.112 164.277 176.973L164.288 177.187L164.294 177.314C164.055 177.195 164.02 177.244 163.885 177.028C163.107 175.787 161.643 174.652 160.199 174.416C151.148 172.936 141.123 179.708 139.293 188.757C139.152 189.455 139.01 189.702 138.515 190.204Z" fill="var(--fill-0, #F6A25A)"/>
<path id="Vector_25" d="M93.881 145.01C94.4587 145.034 97.3149 145.507 97.7423 145.746C96.3369 146.367 95.0236 146.966 93.5425 147.38L93.881 145.01Z" fill="var(--fill-0, #623E81)"/>
<path id="Vector_26" d="M123.677 71.8641C123.891 71.2437 124.121 70.6285 124.363 70.0189C127.877 61.1974 138.245 58.2228 145.023 65.6107C146.607 67.3376 147.233 68.6009 148.146 70.7514C149.55 75.0979 149.368 79.4373 147.288 83.5275C147.196 83.7096 147.102 83.8907 147.007 84.0711C146.183 84.4294 144.927 84.6842 144.036 84.8616C143.46 85.2622 142.89 85.535 142.238 85.7902C142.122 85.4646 141.935 85.3604 141.666 85.139L140.697 84.5302C139.85 84.6535 137.605 84.6796 136.573 84.788C135.161 84.9364 130.844 85.838 129.766 85.7193L129.637 85.6028C129.171 85.7197 128.202 85.8791 127.865 86.0981L127.597 85.8491L127.619 86.2677C127.358 86.505 127.163 86.4555 126.799 86.3813C123.395 82.8385 122.313 76.5152 123.677 71.8641Z" fill="var(--fill-0, #FEFEFE)"/>
<path id="Vector_27" d="M129.637 85.6028C129.498 84.5747 128.985 83.3808 128.881 82.3593C128.341 77.0339 132.648 70.0106 138.581 74.2534C136.624 76.5595 137.974 79.8968 141.274 79.7183C141.336 81.5804 141.311 82.7597 140.697 84.5302C139.85 84.6535 137.605 84.6796 136.573 84.788C135.161 84.9364 130.844 85.838 129.766 85.7193L129.637 85.6028Z" fill="var(--fill-0, #1D1D1D)"/>
<path id="Vector_28" d="M127.597 85.8491C125.45 81.7625 126.625 75.3243 129.913 72.115C131.383 70.687 133.368 69.9146 135.417 69.9735C138.017 70.0694 139.665 71.5604 141.298 73.3595C140.276 73.4516 139.299 73.4683 138.581 74.2534C132.648 70.0106 128.341 77.0339 128.881 82.3593C128.985 83.3808 129.498 84.5747 129.637 85.6028C129.171 85.7197 128.202 85.8791 127.865 86.0981L127.597 85.8491Z" fill="var(--fill-0, #F6A25A)"/>
<path id="Vector_29" d="M141.274 79.7183C142.139 79.0307 142.674 78.4246 143.428 77.7928C143.505 79.5776 143.624 82.9475 143.03 84.5954C143.277 84.9289 143.623 84.8548 144.036 84.8616C143.46 85.2622 142.89 85.535 142.238 85.7902C142.122 85.4646 141.935 85.3604 141.666 85.139L140.697 84.5302C141.311 82.7597 141.336 81.5804 141.274 79.7183Z" fill="var(--fill-0, #F6A25A)"/>
<path id="Vector_30" d="M80.918 71.8616C82.3124 67.5492 84.4987 64.1666 88.839 62.335C91.7277 61.1448 94.9723 61.1591 97.8503 62.3748C101.706 63.9867 103.842 67.0107 105.4 70.7629C106.813 75.3045 106.56 79.8744 104.268 84.0531C103.854 84.8076 103.368 85.6594 102.674 86.1834C102.591 86.1247 102.439 86.0508 102.5 85.9101C103.952 82.5803 104.303 80.154 103.431 76.5826C102.836 78.0768 102.156 78.5878 100.507 78.5011C100.804 78.5559 101.312 78.5573 101.426 78.8772C102.222 81.1095 101.002 83.6398 100.278 85.6785C96.6039 85.1896 93.9526 84.6079 90.2149 84.6308C89.6825 84.6915 88.1156 84.8548 87.7374 84.5491C87.4216 84.8705 85.3592 85.2584 84.6389 85.4816C84.0188 85.2395 83.4233 85.0071 82.813 84.74C80.3035 80.6837 79.6439 76.436 80.918 71.8616Z" fill="var(--fill-0, #FEFEFE)"/>
<path id="Vector_31" d="M90.2149 84.6308C90.1 84.2288 89.8456 83.5242 89.6856 83.1334C87.5818 77.9945 92.6176 68.428 98.8037 73.2523C97.7093 74.7554 97.6106 76.8969 99.2337 78.0513C99.6063 78.3199 100.048 78.4761 100.507 78.5012C100.804 78.5559 101.312 78.5573 101.426 78.8772C102.222 81.1095 101.002 83.6398 100.278 85.6785C96.6039 85.1896 93.9526 84.6079 90.2149 84.6308Z" fill="var(--fill-0, #1D1D1D)"/>
<path id="Vector_32" d="M87.7374 84.5491C83.5729 74.6822 93.9174 62.8933 101.635 72.3379C100.198 72.3307 99.9215 72.3524 98.8037 73.2523C92.6177 68.4279 87.5818 77.9945 89.6856 83.1334C89.8456 83.5242 90.1 84.2288 90.2149 84.6308C89.6825 84.6915 88.1156 84.8548 87.7374 84.5491Z" fill="var(--fill-0, #F6A25A)"/>
<path id="Vector_33" d="M143.378 42.3488C144.496 40.9298 145.958 39.9997 147.228 38.7556C152.092 33.9893 157.53 28.9492 159.83 22.3581C160.166 21.399 159.966 19.0583 160.605 18.448L160.839 18.4677C161.177 18.7354 161.245 19.0353 161.409 19.4405C161.813 20.1293 162.193 21.4071 162.426 22.2177C164.243 28.558 164.798 35.4233 164.249 41.9915C164.06 44.2434 163.43 45.9868 163.189 47.8411C162.194 52.2205 159.848 56.0861 156.723 59.2607C155.485 56.7037 154.475 54.4205 152.989 51.9862C149.701 47.439 147.825 45.679 143.378 42.3488Z" fill="var(--fill-0, #F6A25A)"/>
<path id="Vector_34" d="M161.409 19.4405C161.813 20.1293 162.193 21.4071 162.426 22.2177C164.243 28.558 164.798 35.4233 164.249 41.9915C164.06 44.2434 163.43 45.9868 163.189 47.8411C162.194 52.2205 159.848 56.0861 156.723 59.2607C155.485 56.7037 154.475 54.4205 152.989 51.9862C153.24 51.7724 154.451 50.9879 154.771 50.7922C156.606 49.6694 157.376 48.9678 158.793 47.4229C164.416 41.3053 163.58 32.3861 162.436 24.8059C162.193 23.1965 161.481 20.8859 161.409 19.4405Z" fill="var(--fill-0, #D06C1D)"/>
<path id="Vector_35" d="M66.0448 47.8519C65.9143 46.6339 65.514 45.4283 65.3538 44.1996C64.3306 36.3393 64.8165 27.9487 67.4039 20.424C67.5701 19.9408 68.0831 18.4661 68.6366 18.4825C68.881 18.7904 68.841 18.9812 68.8533 19.379L68.882 19.508C69.0741 20.3962 69.1421 21.6758 69.4126 22.4279C72.3023 30.4637 79.7313 36.7653 85.8851 42.2082C81.5972 45.2088 79.5454 47.2308 76.4137 51.4132C74.6416 54.1677 73.8124 56.1552 72.3275 59.0302C68.6746 55.2931 67.6426 52.6343 66.0448 47.8519Z" fill="var(--fill-0, #F6A25A)"/>
<path id="Vector_36" d="M66.0448 47.8519C65.9143 46.6339 65.514 45.4283 65.3538 44.1996C64.3306 36.3393 64.8165 27.9487 67.4039 20.424C67.5701 19.9408 68.0831 18.4661 68.6366 18.4825C68.881 18.7904 68.841 18.9812 68.8533 19.379C68.4077 19.5807 67.9537 22.3094 67.7734 23.0753C65.3668 33.2932 65.2304 45.622 75.8142 51.298C75.8852 51.3361 76.3018 51.3967 76.4137 51.4132C74.6416 54.1677 73.8124 56.1552 72.3275 59.0302C68.6746 55.2931 67.6426 52.6343 66.0448 47.8519Z" fill="var(--fill-0, #D06C1D)"/>
<path id="Vector_37" d="M68.723 73.4428C68.3299 73.2041 62.2491 74.1225 61.2188 74.1663C57.386 74.3286 51.2398 74.1705 48.0385 71.8057C42.1911 67.3494 39.1105 60.3594 34.2609 54.9344C32.8738 53.3828 28.8604 51.6742 29.4247 49.9794C29.7507 50.0742 29.86 50.0515 30.1875 50.0155C36.6934 52.8252 38.8489 57.4489 42.8833 62.576C46.9958 67.8027 55.5277 70.1492 61.885 70.8602C63.9013 71.0941 66.8472 71.0116 68.9018 70.9986C68.8639 71.607 68.8207 72.8937 68.723 73.4428Z" fill="var(--fill-0, #51366D)"/>
<path id="Vector_38" d="M80.918 71.8616C80.4563 71.6925 80.5661 71.8032 80.2931 71.4587C80.2346 71.0834 80.2289 70.8092 80.3323 70.4362C82.3175 63.2691 90.1833 58.5539 97.359 61.1126C100.405 62.1987 102.832 63.875 104.539 66.6601C104.99 67.3972 106.258 69.6622 106.082 70.4351C105.805 70.7493 105.894 70.6504 105.4 70.7629C103.842 67.0107 101.706 63.9867 97.8503 62.3748C94.9723 61.1591 91.7277 61.1448 88.839 62.335C84.4987 64.1666 82.3124 67.5492 80.918 71.8616Z" fill="var(--fill-0, #F6A25A)"/>
<path id="Vector_39" d="M123.677 71.8641C123.341 71.7902 123.339 71.8176 123.1 71.5807C123.032 71.3589 122.977 71.1442 123.033 70.9088C124.596 64.269 131.186 59.4589 138.035 60.6089C141.693 61.2182 144.953 63.2672 147.09 66.298C147.621 67.0652 148.998 69.493 148.842 70.3375C148.546 70.6936 148.647 70.5815 148.146 70.7514C147.233 68.6009 146.607 67.3376 145.023 65.6107C138.245 58.2228 127.877 61.1975 124.363 70.0189C124.121 70.6285 123.891 71.2437 123.677 71.8641Z" fill="var(--fill-0, #F6A25A)"/>
<path id="Vector_40" d="M164.085 149.722C164.447 150.405 164.995 151.538 165.777 151.712C166.144 151.375 165.531 150.12 165.333 149.538C164.381 146.746 165.203 144.323 165.379 141.5C165.451 140.327 165.122 139.343 165.176 138.472C165.238 138.365 165.298 138.188 165.409 138.214C168.875 139.02 173.052 140.867 174.456 144.412C174.914 145.569 175.438 148.393 175.971 148.738C176.712 148.172 176.748 145.226 177.491 144.695L177.683 144.81C178.053 145.424 178.049 145.797 178.27 146.428C179.25 149.251 179.723 152.329 178.479 155.149C177.444 157.498 175.857 158.568 173.838 159.956C173.182 160.218 172.971 160.323 172.248 160.403C171.048 160.464 169.926 160.581 168.806 160.075C164.764 158.254 162.337 153.983 164.085 149.722Z" fill="var(--fill-0, #F6A25A)"/>
</g>
<defs>
<filter id="filter0_f_0_204" x="53" y="152" width="126" height="62" filterUnits="userSpaceOnUse" color-interpolation-filters="sRGB">
<feFlood flood-opacity="0" result="BackgroundImageFix"/>
<feBlend mode="normal" in="SourceGraphic" in2="BackgroundImageFix" result="shape"/>
<feGaussianBlur stdDeviation="12.5" result="effect1_foregroundBlur_0_204"/>
</filter>
</defs>
</svg>
