<svg preserveAspectRatio="none" width="100%" height="100%" overflow="visible" style="display: block;" viewBox="0 0 447.423 930.233" fill="none" xmlns="http://www.w3.org/2000/svg">
<path id="Flattened" fill-rule="evenodd" clip-rule="evenodd" d="M2.28106 67.7143C2.28106 30.3167 32.5978 0 69.9953 0H377.391C414.789 0 445.106 30.3167 445.106 67.7143V289.551C446.386 289.551 447.423 290.589 447.423 291.869V399.909C447.423 401.189 446.386 402.226 445.106 402.226V862.519C445.106 899.917 414.789 930.233 377.391 930.233H69.9953C32.5978 930.233 2.28106 899.917 2.28106 862.519V401.731C1.01914 401.71 0.0026189 400.681 0.0026189 399.414V334.229C0.0026189 332.962 1.01914 331.933 2.28106 331.912V310.667C1.01793 310.647 0 309.617 0 308.349V242.421C0 241.153 1.01793 240.123 2.28106 240.104V207.864C1.01793 207.845 0 206.815 0 205.547V175.194C0 173.926 1.01793 172.896 2.28106 172.877V67.7143ZM69.9953 12.7383C39.633 12.7383 15.0194 37.3519 15.0194 67.7143V862.519C15.0194 892.881 39.633 917.495 69.9953 917.495H377.391C407.754 917.495 432.367 892.881 432.367 862.519V67.7143C432.367 37.3519 407.754 12.7383 377.391 12.7383H69.9953Z" fill="var(--fill-0, black)"/>
</svg>
