<svg preserveAspectRatio="none" width="100%" height="100%" overflow="visible" style="display: block;" viewBox="0 0 19.9893 12.7291" fill="none" xmlns="http://www.w3.org/2000/svg">
<path id="Cellular Connection" fill-rule="evenodd" clip-rule="evenodd" d="M19.9893 1.19335C19.9893 0.53428 19.4921 0 18.8788 0H17.7683C17.155 0 16.6578 0.53428 16.6578 1.19335V11.5357C16.6578 12.1948 17.155 12.7291 17.7683 12.7291H18.8788C19.4921 12.7291 19.9893 12.1948 19.9893 11.5357V1.19335ZM12.2496 2.54581H13.3601C13.9734 2.54581 14.4706 3.09291 14.4706 3.7678V11.5071C14.4706 12.182 13.9734 12.7291 13.3601 12.7291H12.2496C11.6363 12.7291 11.1391 12.182 11.1391 11.5071V3.7678C11.1391 3.09291 11.6363 2.54581 12.2496 2.54581ZM7.73974 5.30376H6.62922C6.0159 5.30376 5.5187 5.85783 5.5187 6.54131V11.4915C5.5187 12.175 6.0159 12.729 6.62922 12.729H7.73974C8.35306 12.729 8.85025 12.175 8.85025 11.4915V6.54131C8.85025 5.85783 8.35306 5.30376 7.73974 5.30376ZM2.22104 7.84958H1.11052C0.497196 7.84958 0 8.39574 0 9.06945V11.5092C0 12.1829 0.497196 12.7291 1.11052 12.7291H2.22104C2.83436 12.7291 3.33155 12.1829 3.33155 11.5092V9.06945C3.33155 8.39574 2.83436 7.84958 2.22104 7.84958Z" fill="var(--fill-0, #1A1A1C)"/>
</svg>
