<svg preserveAspectRatio="none" width="100%" height="100%" overflow="visible" style="display: block;" viewBox="0 0 17.8464 12.8351" fill="none" xmlns="http://www.w3.org/2000/svg">
<path id="Wifi" fill-rule="evenodd" clip-rule="evenodd" d="M8.92368 2.56767C11.513 2.56778 14.0034 3.52777 15.88 5.24923C16.0213 5.38213 16.2472 5.38045 16.3864 5.24547L17.7372 3.93006C17.8077 3.8616 17.847 3.76886 17.8464 3.67237C17.8458 3.57588 17.8054 3.48359 17.7341 3.41592C12.8086 -1.13864 5.03801 -1.13864 0.112498 3.41592C0.0411488 3.48354 0.000666068 3.5758 8.14563e-06 3.67229C-0.000649776 3.76878 0.0385714 3.86155 0.108993 3.93006L1.46021 5.24547C1.5993 5.38066 1.82535 5.38234 1.96658 5.24923C3.84343 3.52766 6.33406 2.56767 8.92368 2.56767ZM8.92018 6.96145C10.3333 6.96136 11.696 7.49414 12.7435 8.45626C12.8852 8.5928 13.1083 8.58984 13.2464 8.44959L14.5866 7.07604C14.6572 7.00399 14.6964 6.90626 14.6954 6.8047C14.6943 6.70313 14.6532 6.60622 14.5812 6.53565C11.3914 3.52596 6.45164 3.52596 3.26185 6.53565C3.1898 6.60622 3.14869 6.70318 3.14774 6.80478C3.1468 6.90637 3.18609 7.0041 3.25682 7.07604L4.59664 8.44959C4.73474 8.58984 4.95792 8.5928 5.0996 8.45626C6.14639 7.49477 7.508 6.96204 8.92018 6.96145ZM11.5484 9.86984C11.5504 9.97953 11.5118 10.0853 11.4417 10.1621L9.17559 12.7178C9.10916 12.7929 9.01859 12.8351 8.92409 12.8351C8.82959 12.8351 8.73902 12.7929 8.67259 12.7178L6.40606 10.1621C6.33605 10.0852 6.29753 9.97943 6.29961 9.86975C6.30168 9.76007 6.34417 9.65621 6.41703 9.58269C7.86428 8.21478 9.9839 8.21478 11.4312 9.58269C11.504 9.65627 11.5464 9.76016 11.5484 9.86984Z" fill="var(--fill-0, #1A1A1C)"/>
</svg>
